<?xml version="1.0" standalone="no"?>
<!DOCTYPE svg PUBLIC "-//W3C//DTD SVG 20010904//EN"
 "http://www.w3.org/TR/2001/REC-SVG-20010904/DTD/svg10.dtd">
<svg version="1.0" xmlns="http://www.w3.org/2000/svg"
 width="512.000000pt" height="512.000000pt" viewBox="0 0 512.000000 512.000000"
 preserveAspectRatio="xMidYMid meet">
<metadata>
Created by potrace 1.11, written by Peter Selinger 2001-2013
</metadata>
<g transform="translate(0.000000,512.000000) scale(0.100000,-0.100000)"
fill="#000000" stroke="none">
<path d="M2408 5055 c-2 -1 -39 -5 -83 -9 -44 -3 -89 -8 -100 -10 -11 -2 -42
-7 -70 -10 -74 -10 -278 -60 -370 -91 -545 -184 -994 -527 -1311 -1005 -157
-236 -280 -519 -343 -790 -23 -98 -25 -112 -46 -235 -26 -152 -25 -625 0 -698
2 -7 6 -30 9 -52 25 -222 162 -615 289 -830 42 -72 181 -278 211 -315 101
-122 128 -152 219 -241 403 -398 929 -646 1497 -706 145 -15 511 -8 611 12 13
3 38 7 54 10 17 2 55 9 85 15 30 6 66 14 80 16 14 3 63 16 110 30 47 14 90 27
95 28 48 14 219 83 305 124 672 320 1180 949 1351 1672 26 110 28 117 35 170
3 25 8 54 10 65 26 134 26 531 0 705 -14 95 -40 218 -61 295 -14 50 -28 97
-30 105 -6 24 -45 133 -55 155 -5 11 -27 63 -50 115 -181 413 -504 796 -885
1051 -45 30 -92 60 -105 68 -143 83 -244 133 -365 181 -38 15 -79 31 -90 35
-11 4 -24 9 -30 10 -5 1 -31 10 -57 18 -51 18 -223 61 -278 71 -19 3 -44 8
-56 10 -21 4 -62 10 -189 25 -66 8 -379 13 -387 6z"/>
</g>
</svg>
